<?xml version="1.0" encoding="UTF-8"?>
<svg width="70px" height="16px" viewBox="0 0 70 16" version="1.1" xmlns="http://www.w3.org/2000/svg" xmlns:xlink="http://www.w3.org/1999/xlink">
    <!-- Generator: Sketch 53.2 (72643) - https://sketchapp.com -->
    <title>img/logo/logo_trill</title>
    <desc>Created with Sketch.</desc>
    <g id="img/logo/logo_trill" stroke="none" stroke-width="1" fill="none" fill-rule="evenodd">
        <g id="logo" fill="#444444">
            <path d="M8.79689744,0.336567742 C7.84176923,0.358503226 6.86407692,0.371148387 5.86433333,0.371148387 C4.86458974,0.371148387 3.88715385,0.358503226 2.93253846,0.336567742 C1.97741026,0.314632258 0.999717949,0.288051613 -2.56410258e-05,0.258116129 C0.0761282051,0.560051613 0.113307692,0.7936 0.113307692,0.959793548 C0.113307692,1.17140645 0.0761282051,1.41243871 -2.56410258e-05,1.68392258 C0.317666667,1.63850323 0.677153846,1.60082581 1.07971795,1.57089032 C1.48023077,1.54095484 1.89792308,1.51437419 2.32971795,1.49140645 C2.76151282,1.46895484 3.19330769,1.45347097 3.62510256,1.4459871 C4.05817949,1.4379871 4.47048718,1.43489032 4.86458974,1.43489032 C4.90971795,2.9899871 4.93305128,4.55179355 4.93305128,6.12082581 L4.93305128,10.0147613 C4.93305128,11.0101161 4.91330769,11.9920516 4.87510256,12.9582452 C4.83715385,13.9234065 4.79587179,14.8746323 4.75074359,15.8101161 C5.09920513,15.7801806 5.46971795,15.7644387 5.86433333,15.7644387 C6.2584359,15.7644387 6.62971795,15.7801806 6.97792308,15.8101161 C6.93228205,14.8746323 6.89048718,13.9234065 6.85330769,12.9582452 C6.81561538,11.9920516 6.79612821,11.0101161 6.79612821,10.0147613 L6.79612821,6.12082581 C6.79612821,4.55179355 6.81894872,2.9899871 6.86407692,1.43489032 C7.25869231,1.43489032 7.67176923,1.4379871 8.10253846,1.4459871 C8.53535897,1.45347097 8.96741026,1.46895484 9.39920513,1.49140645 C9.831,1.51437419 10.2468974,1.54095484 10.6494615,1.57089032 C11.0504872,1.60082581 11.4112564,1.63850323 11.7292051,1.68392258 C11.6533077,1.41243871 11.615359,1.17785806 11.615359,0.981729032 C11.615359,0.800051613 11.6533077,0.560051613 11.7292051,0.258116129 C10.7289487,0.288051613 9.751,0.314632258 8.79689744,0.336567742" id="Fill-1"></path>
            <path d="M21.1000769,7.57710968 C20.7977692,7.57710968 20.5249487,7.56962581 20.2762308,7.55388387 C20.0282821,7.53994839 19.7977692,7.50923871 19.5877692,7.46433548 L19.5877692,6.18330323 C19.5877692,5.37427097 19.6028974,4.56498065 19.6334103,3.75569032 C19.6621282,2.94691613 19.692641,2.12988387 19.7223846,1.30536774 C19.9636667,1.27594839 20.2567436,1.24885161 20.6034103,1.22717419 C20.9498205,1.20420645 21.3854615,1.19362581 21.9118718,1.19362581 C22.3031538,1.19362581 22.7021282,1.23465806 23.1085385,1.31698065 C23.5149487,1.3987871 23.8900769,1.55285161 24.2367436,1.77710968 C24.5828974,2.00188387 24.8654615,2.30536774 25.0834103,2.68781935 C25.3018718,3.06975484 25.4111026,3.55336774 25.4111026,4.13788387 C25.4111026,4.81117419 25.271359,5.3704 24.992641,5.81298065 C24.7141795,6.25504516 24.3644359,6.6067871 23.9431538,6.86794839 C23.5218718,7.13091613 23.0600769,7.31388387 22.5541795,7.41943226 C22.0508462,7.52446452 21.5662308,7.57710968 21.1000769,7.57710968 M27.0131538,13.5451097 C26.6216154,13.0578839 26.2152051,12.5487226 25.7939231,12.0168516 C25.372641,11.4844645 24.9667436,10.9755613 24.5759744,10.4867871 C24.1836667,10.0005935 23.8303333,9.5544 23.5149487,9.1507871 C23.1990513,8.74562581 22.9508462,8.43104516 22.7693077,8.2067871 C23.2052051,8.14665806 23.6916154,8.02330323 24.2252051,7.83517419 C24.7593077,7.64781935 25.2603333,7.38485161 25.727,7.04885161 C26.1928974,6.71156129 26.5882821,6.28343226 26.911359,5.76781935 C27.2346923,5.24988387 27.3959744,4.63285161 27.3959744,3.91388387 C27.3959744,3.23930323 27.2728974,2.67620645 27.0246923,2.22717419 C26.7764872,1.77710968 26.4380256,1.41427097 26.0087949,1.13736774 C25.5803333,0.859432258 25.0790513,0.661754839 24.5085385,0.54123871 C23.9357179,0.422012903 23.3341795,0.361883871 22.7021282,0.361883871 C22.2657179,0.361883871 21.8362308,0.380722581 21.4154615,0.416593548 C20.9946923,0.455045161 20.5646923,0.474658065 20.1287949,0.474658065 C19.692641,0.474658065 19.2636667,0.463045161 18.8428974,0.439819355 C18.4216154,0.416593548 17.992641,0.391303226 17.5557179,0.361883871 C17.6011026,1.3500129 17.642641,2.32110968 17.6800769,3.27233548 C17.7180256,4.22381935 17.737,5.19362581 17.737,6.18330323 L17.737,10.0498839 C17.737,11.038271 17.7180256,12.0127226 17.6800769,12.9704 C17.642641,13.9311742 17.6011026,14.8749161 17.5557179,15.8034323 C17.9016154,15.7740129 18.2705897,15.758271 18.6621282,15.758271 C19.0531538,15.758271 19.4221282,15.7740129 19.7685385,15.8034323 C19.7223846,14.8749161 19.6816154,13.9311742 19.6441795,12.9704 C19.6067436,12.0127226 19.5877692,11.038271 19.5877692,10.0498839 L19.5877692,8.40962581 L20.4454615,8.40962581 C20.9267436,8.90330323 21.4575128,9.50588387 22.0364872,10.2171097 C22.6146923,10.9293677 23.1839231,11.6460129 23.7405897,12.3654968 C24.2972564,13.0834323 24.8054615,13.7580129 25.2636667,14.3876903 C25.7231538,15.0173677 26.0649487,15.4888516 26.291359,15.8034323 C26.501359,15.7740129 26.7200769,15.758271 26.9446923,15.758271 L27.5998205,15.758271 L28.2772564,15.758271 C28.5023846,15.758271 28.7280256,15.7740129 28.9541795,15.8034323 C28.7431538,15.5944 28.4649487,15.2867871 28.1190513,14.8831742 C27.7723846,14.4774968 27.4039231,14.0325935 27.0131538,13.5451097" id="Fill-4"></path>
            <path d="M37.8864359,3.2724129 C37.9243846,2.32092903 37.9654103,1.35009032 38.0113077,0.361703226 C37.8151538,0.391122581 37.6266923,0.416670968 37.4466923,0.439896774 C37.2659231,0.463122581 37.0856667,0.474735484 36.9036154,0.474735484 C36.7236154,0.474735484 36.543359,0.463122581 36.363359,0.439896774 C36.1831026,0.416670968 35.9936154,0.391122581 35.799,0.361703226 C35.8441282,1.35009032 35.8861795,2.32092903 35.9228462,3.2724129 C35.9602821,4.22389677 35.9792564,5.19344516 35.9792564,6.18312258 L35.9792564,10.0499613 C35.9792564,11.0383484 35.9602821,12.0128 35.9228462,12.9704774 C35.8861795,13.9309935 35.8441282,14.8747355 35.799,15.8035097 C36.144641,15.7740903 36.5136154,15.7583484 36.9036154,15.7583484 C37.2951538,15.7583484 37.6648974,15.7740903 38.0113077,15.8035097 C37.9654103,14.8747355 37.9243846,13.9309935 37.8864359,12.9704774 C37.849,12.0128 37.8295128,11.0383484 37.8295128,10.0499613 L37.8295128,6.18312258 C37.8295128,5.19344516 37.849,4.22389677 37.8864359,3.2724129" id="Fill-6"></path>
            <path d="M51.5555641,14.779871 C50.5771026,14.8030968 49.5540256,14.8144516 48.4855641,14.8144516 C48.4712051,13.7207742 48.4550513,12.4807742 48.4412051,11.0944516 C48.4247949,9.70864516 48.4176154,8.07070968 48.4176154,6.18322581 C48.4176154,5.19354839 48.4365897,4.22374194 48.4747949,3.27251613 C48.5114615,2.32103226 48.5535128,1.34993548 48.5983846,0.361806452 C48.4027436,0.391225806 48.2150513,0.416774194 48.0337692,0.441032258 C47.853,0.462967742 47.6732564,0.474580645 47.4932564,0.474580645 C47.3124872,0.474580645 47.1312051,0.462967742 46.9514615,0.441032258 C46.7706923,0.416774194 46.5819744,0.391225806 46.387359,0.361806452 C46.4317179,1.34993548 46.4737692,2.32103226 46.5106923,3.27251613 C46.5478718,4.22374194 46.5676154,5.19354839 46.5676154,6.18322581 L46.5676154,10.0498065 C46.5676154,11.0381935 46.5478718,12.0126452 46.5106923,12.9705806 C46.4737692,13.9310968 46.4317179,14.8748387 46.387359,15.8036129 C47.108641,15.7741935 47.8045385,15.7584516 48.4747949,15.7584516 L50.5619744,15.7584516 L52.6378718,15.7584516 C53.3309487,15.7584516 54.023,15.7741935 54.7147949,15.8036129 C54.6394103,15.5649032 54.6019744,15.3620645 54.6019744,15.1969032 C54.6019744,15.0172903 54.6394103,14.7914839 54.7147949,14.5225806 C53.5871026,14.6727742 52.533,14.7584516 51.5555641,14.779871" id="Fill-8"></path>
            <path d="M69.8875128,14.5225548 C68.7587949,14.6727484 67.7052051,14.7584258 66.7277692,14.7798452 C65.7490513,14.803071 64.7262308,14.8144258 63.6582821,14.8144258 C63.6434103,13.7207484 63.6277692,12.4807484 63.6134103,11.0944258 C63.5980256,9.70861935 63.5903333,8.07068387 63.5903333,6.1832 C63.5903333,5.19352258 63.6095641,4.22371613 63.6462308,3.27249032 C63.6844359,2.32100645 63.727,1.35016774 63.7711026,0.360490323 C63.5749487,0.3912 63.3877692,0.416748387 63.2077692,0.439974194 C63.0262308,0.4632 62.8449487,0.474554839 62.6649487,0.474554839 C62.4846923,0.474554839 62.3044359,0.4632 62.1231538,0.439974194 C61.9423846,0.416748387 61.7552051,0.3912 61.5595641,0.360490323 C61.6039231,1.35016774 61.6452051,2.32100645 61.6844359,3.27249032 C61.721359,4.22371613 61.7398205,5.19352258 61.7398205,6.1832 L61.7398205,10.0497806 C61.7398205,11.0384258 61.721359,12.0126194 61.6844359,12.9705548 C61.6452051,13.931071 61.6039231,14.8748129 61.5595641,15.8035871 C62.2818718,15.7741677 62.9767436,15.7584258 63.6462308,15.7584258 L65.7352051,15.7584258 L67.8116154,15.7584258 C68.5031538,15.7584258 69.1949487,15.7741677 69.8875128,15.8035871 C69.8121282,15.5648774 69.7746923,15.3620387 69.7746923,15.1968774 C69.7746923,15.0172645 69.8121282,14.7914581 69.8875128,14.5225548" id="Fill-10"></path>
        </g>
    </g>
</svg>