<svg width="39" height="8" viewBox="0 0 39 8" fill="none" xmlns="http://www.w3.org/2000/svg">
<path d="M0.441406 7.36719H1.12109V5.32031H1.13672C1.39062 5.78906 1.86328 6.07812 2.4375 6.07812C3.45703 6.07812 4.15234 5.25391 4.15234 3.97266V3.96875C4.15234 2.6875 3.46484 1.85938 2.42578 1.85938C1.84375 1.85938 1.39062 2.15234 1.13672 2.625H1.12109V1.9375H0.441406V7.36719ZM2.29297 5.47656C1.60938 5.47656 1.11719 4.87891 1.11719 3.97266V3.96875C1.11719 3.05859 1.60547 2.46094 2.29297 2.46094C3.01172 2.46094 3.45703 3.03516 3.45703 3.96875V3.97266C3.45703 4.89844 3.01172 5.47656 2.29297 5.47656ZM6.52344 6.07812C7.64453 6.07812 8.40234 5.26562 8.40234 3.96875V3.96094C8.40234 2.66406 7.64062 1.85938 6.51953 1.85938C5.39844 1.85938 4.64062 2.66797 4.64062 3.96094V3.96875C4.64062 5.26172 5.39453 6.07812 6.52344 6.07812ZM6.52734 5.47656C5.80859 5.47656 5.33594 4.92578 5.33594 3.96875V3.96094C5.33594 3.01172 5.8125 2.46094 6.51953 2.46094C7.23828 2.46094 7.70703 3.00781 7.70703 3.96094V3.96875C7.70703 4.92188 7.24219 5.47656 6.52734 5.47656ZM9.89453 6H10.5859L11.5 2.85547H11.5156L12.4336 6H13.125L14.2578 1.9375H13.5859L12.7734 5.24219H12.7578L11.8359 1.9375H11.1797L10.2617 5.24219H10.2461L9.43359 1.9375H8.75781L9.89453 6ZM16.4883 6.07812C17.375 6.07812 18.0391 5.54688 18.1719 4.875L18.1797 4.83594H17.5117L17.5 4.87109C17.3828 5.21875 17.0195 5.47656 16.5039 5.47656C15.7812 5.47656 15.3203 4.98828 15.3047 4.15234H18.2305V3.90234C18.2305 2.68359 17.5547 1.85938 16.4453 1.85938C15.3359 1.85938 14.6172 2.72266 14.6172 3.98047V3.98438C14.6172 5.26172 15.3203 6.07812 16.4883 6.07812ZM16.4414 2.46094C17.0352 2.46094 17.4727 2.83203 17.5391 3.62109H15.3164C15.3906 2.86328 15.8516 2.46094 16.4414 2.46094ZM18.918 6H19.5977V3.49219C19.5977 2.875 19.9414 2.50781 20.4688 2.50781C20.6328 2.50781 20.7773 2.52734 20.832 2.54688V1.88672C20.7773 1.87891 20.6758 1.85938 20.5586 1.85938C20.1016 1.85938 19.75 2.15625 19.6133 2.625H19.5977V1.9375H18.918V6ZM22.8633 6.07812C23.75 6.07812 24.4141 5.54688 24.5469 4.875L24.5547 4.83594H23.8867L23.875 4.87109C23.7578 5.21875 23.3945 5.47656 22.8789 5.47656C22.1562 5.47656 21.6953 4.98828 21.6797 4.15234H24.6055V3.90234C24.6055 2.68359 23.9297 1.85938 22.8203 1.85938C21.7109 1.85938 20.9922 2.72266 20.9922 3.98047V3.98438C20.9922 5.26172 21.6953 6.07812 22.8633 6.07812ZM22.8164 2.46094C23.4102 2.46094 23.8477 2.83203 23.9141 3.62109H21.6914C21.7656 2.86328 22.2266 2.46094 22.8164 2.46094ZM26.8203 6.07812C27.4023 6.07812 27.8555 5.78516 28.1094 5.3125H28.125V6H28.8047V0.363281H28.125V2.61719H28.1094C27.8555 2.14844 27.3828 1.85938 26.8086 1.85938C25.7891 1.85938 25.0938 2.68359 25.0938 3.96484V3.96875C25.0938 5.25 25.7812 6.07812 26.8203 6.07812ZM26.9531 5.47656C26.2344 5.47656 25.7891 4.90234 25.7891 3.96875V3.96484C25.7891 3.03906 26.2344 2.46094 26.9531 2.46094C27.6367 2.46094 28.1289 3.05859 28.1289 3.96484V3.96875C28.1289 4.87891 27.6406 5.47656 26.9531 5.47656ZM33.3828 6.07812C34.4219 6.07812 35.1094 5.25 35.1094 3.96875V3.96484C35.1094 2.68359 34.4141 1.85938 33.3945 1.85938C32.8203 1.85938 32.3477 2.14844 32.0938 2.61719H32.0781V0.363281H31.3984V6H32.0781V5.3125H32.0938C32.3477 5.78516 32.8008 6.07812 33.3828 6.07812ZM33.25 5.47656C32.5625 5.47656 32.0742 4.87891 32.0742 3.96875V3.96484C32.0742 3.05859 32.5664 2.46094 33.25 2.46094C33.9688 2.46094 34.4141 3.03906 34.4141 3.96484V3.96875C34.4141 4.90234 33.9688 5.47656 33.25 5.47656ZM36.0273 7.36719C36.7617 7.36719 37.1172 7.03125 37.4062 6.25391L38.9922 1.9375H38.2773L37.1523 5.32031H37.1367L36.0156 1.9375H35.2891L36.7969 6.00391L36.7148 6.23438C36.5508 6.69531 36.3125 6.80469 35.8828 6.80469C35.8008 6.80469 35.7227 6.79297 35.6641 6.78125V7.33594C35.75 7.35156 35.8945 7.36719 36.0273 7.36719Z" fill="#AAAAAA"/>
</svg>
